<?xml version="1.0" encoding="UTF-8"?>
<svg width="155px" height="165px" viewBox="0 0 155 165" version="1.1" xmlns="http://www.w3.org/2000/svg" xmlns:xlink="http://www.w3.org/1999/xlink">
    <!-- Generator: Sketch 42 (36781) - http://www.bohemiancoding.com/sketch -->
    <title>Mask</title>
    <desc>Created with Sketch.</desc>
    <defs></defs>
    <g id="Page-1" stroke="none" stroke-width="1" fill="none" fill-rule="evenodd" opacity="0.388870018">
        <g id="iPhone-7" transform="translate(-127.000000, -151.000000)" fill="#580000">
            <path d="M129.850759,154.815997 L127.179764,159.085375 L127.179764,228.126457 C127.179764,228.126457 124.658637,251.873423 138.499373,251.873423 C152.34011,251.873423 151.597608,228.126457 151.597608,228.126457 L151.597608,194.068087 C151.597608,194.068087 153.434569,187.349751 158.79935,187.349751 C164.164132,187.349751 166.62252,194.068087 166.62252,194.068087 L168.220458,287.868543 C168.220458,287.868543 166.935498,308.129318 185.828946,308.129318 C204.722395,308.129318 202.740258,287.868543 202.740258,287.868543 L202.740258,199.267732 L215.686208,199.267732 L215.686208,237.561388 C215.686208,237.561388 216.591857,254.971928 228.011121,254.971928 C239.430386,254.971928 240.344295,237.561388 240.344295,237.561388 L240.344295,303.116866 C240.344295,303.116866 239.517054,315.656444 245.681041,315.656444 C251.845027,315.656444 251.014975,303.116866 251.014975,303.116866 L251.014975,190.827652 C251.014975,190.827652 252.208774,182.321614 257.196166,182.321614 C262.183559,182.321614 263.306657,190.827652 263.306657,190.827652 L263.306657,223.471593 C263.306657,223.471593 263.79087,242.332924 272.980384,242.332924 C282.169898,242.332924 281.999783,223.471593 281.999783,223.471593 L281.999783,157.870268 L277.217855,152.641554 C277.217855,152.641554 275.629649,152.015249 272.314149,152.015249 C271.995707,152.015249 269.18005,152.448159 267.297318,153.772655 C265.414585,155.09715 265.658755,156.693824 264.354946,156.705789 C263.627157,156.712469 260.231045,157.044787 255.43733,156.705789 C254.57423,156.644754 257.620832,152.254323 254.8335,152.015249 C254.038472,151.947058 251.692625,151.949443 246.294947,152.015249 C245.611204,152.023585 247.026021,154.806244 246.294947,154.815997 C246.13187,154.818173 244.092857,152.809119 241.177231,152.641554 C240.125104,152.581087 233.290466,152.638363 228.011121,152.641554 C227.246476,152.642017 229.058414,155.698227 228.011121,155.69845 C227.691827,155.698518 226.769562,153.03657 224.310426,152.641554 C223.560254,152.521053 221.854868,152.47407 219.846864,152.466966 C215.272442,152.450782 209.127521,152.641554 209.127521,152.641554 L202.196089,156.705789 C202.196089,156.705789 200.313304,153.646379 198.133023,152.641554 C195.952741,151.63673 193.498519,152.696951 193.046289,152.641554 C187.933394,152.015249 184.791847,156.705789 184.791847,156.705789 L176.078519,156.705789 L176.078519,151.824919 L166.382829,152.015249 C166.382829,152.015249 164.98425,155.259661 160.493478,154.815997 C156.002706,154.372333 155.545921,151.655501 155.150682,151.668243 C151.745516,151.778023 145.50434,152.015249 145.50434,152.015249 L145.50434,155.259661 L136.466923,152.015249 L129.850759,154.815997 Z" id="Mask" style="mix-blend-mode: overlay;"></path>
        </g>
    </g>
</svg>